<svg width="29" height="29" viewBox="0 0 29 29" fill="none" xmlns="http://www.w3.org/2000/svg">
<path d="M0.5 14.5C0.5 6.76801 6.76801 0.5 14.5 0.5C22.232 0.5 28.5 6.76801 28.5 14.5C28.5 22.232 22.232 28.5 14.5 28.5C6.76801 28.5 0.5 22.232 0.5 14.5Z" fill="#2C2C2C"/>
<path d="M0.5 14.5C0.5 6.76801 6.76801 0.5 14.5 0.5C22.232 0.5 28.5 6.76801 28.5 14.5C28.5 22.232 22.232 28.5 14.5 28.5C6.76801 28.5 0.5 22.232 0.5 14.5Z" stroke="#2C2C2C" stroke-linecap="round"/>
<path d="M14.4998 8.6665V20.3332M8.6665 14.4998H20.3332" stroke="#F5F5F5" stroke-width="2" stroke-linecap="round" stroke-linejoin="round"/>
</svg>
