<svg width="78" height="79" viewBox="0 0 78 79" fill="none" xmlns="http://www.w3.org/2000/svg">
<path d="M8.66667 78.4084C6.28333 78.4084 4.24233 77.5597 2.54367 75.8624C0.847888 74.1621 0 72.1193 0 69.7337V9.01087C0 6.62533 0.847888 4.58244 2.54367 2.8822C4.24233 1.18486 6.28333 0.336182 8.66667 0.336182H69.3333C71.7167 0.336182 73.7577 1.18486 75.4563 2.8822C77.1521 4.58244 78 6.62533 78 9.01087V69.7337C78 72.1193 77.1521 74.1621 75.4563 75.8624C73.7577 77.5597 71.7167 78.4084 69.3333 78.4084H8.66667ZM21.6667 61.059C22.8944 61.059 23.9243 60.6426 24.7563 59.8099C25.5854 58.98 26 57.9506 26 56.7217V43.7096C26 42.4807 25.5854 41.4499 24.7563 40.6171C23.9243 39.7872 22.8944 39.3723 21.6667 39.3723C20.4389 39.3723 19.409 39.7872 18.577 40.6171C17.7479 41.4499 17.3333 42.4807 17.3333 43.7096V56.7217C17.3333 57.9506 17.7479 58.98 18.577 59.8099C19.409 60.6426 20.4389 61.059 21.6667 61.059ZM56.3333 61.059C57.5611 61.059 58.5896 60.6426 59.4187 59.8099C60.2507 58.98 60.6667 57.9506 60.6667 56.7217V22.0229C60.6667 20.794 60.2507 19.7632 59.4187 18.9304C58.5896 18.1005 57.5611 17.6856 56.3333 17.6856C55.1056 17.6856 54.0771 18.1005 53.248 18.9304C52.416 19.7632 52 20.794 52 22.0229V56.7217C52 57.9506 52.416 58.98 53.248 59.8099C54.0771 60.6426 55.1056 61.059 56.3333 61.059ZM39 61.059C40.2278 61.059 41.2577 60.6426 42.0897 59.8099C42.9188 58.98 43.3333 57.9506 43.3333 56.7217V52.3843C43.3333 51.1554 42.9188 50.1246 42.0897 49.2918C41.2577 48.4619 40.2278 48.047 39 48.047C37.7722 48.047 36.7438 48.4619 35.9147 49.2918C35.0827 50.1246 34.6667 51.1554 34.6667 52.3843V56.7217C34.6667 57.9506 35.0827 58.98 35.9147 59.8099C36.7438 60.6426 37.7722 61.059 39 61.059ZM39 39.3723C40.2278 39.3723 41.2577 38.9559 42.0897 38.1231C42.9188 37.2933 43.3333 36.2639 43.3333 35.0349V34.9265C43.3333 33.6976 42.9188 32.6856 42.0897 31.8904C41.2577 31.0952 40.2278 30.6976 39 30.6976C37.7722 30.6976 36.7438 31.1125 35.9147 31.9424C35.0827 32.7752 34.6667 33.806 34.6667 35.0349V35.1434C34.6667 36.3723 35.0827 37.3843 35.9147 38.1795C36.7438 38.9747 37.7722 39.3723 39 39.3723Z" fill="#75F94C"/>
</svg>
