<svg width="26" height="5" viewBox="0 0 26 5" fill="none" xmlns="http://www.w3.org/2000/svg">
<path d="M22.5549 5C21.0871 5 19.8945 3.87891 19.8945 2.50104C19.8945 1.12317 21.0871 0 22.5549 0C24.0228 0 25.2154 1.12317 25.2154 2.50104C25.2154 3.87891 24.0228 5 22.5549 5Z" fill="#9B9B9B"/>
<path d="M12.6077 5C11.1398 5 9.94727 3.87891 9.94727 2.50104C9.94727 1.12317 11.1398 0 12.6077 0C14.0756 0 15.2681 1.12317 15.2681 2.50104C15.2681 3.87891 14.0756 5 12.6077 5Z" fill="#9B9B9B"/>
<path d="M2.66042 5C1.19252 5 0 3.87891 0 2.50104C0 1.12317 1.19252 0 2.66042 0C4.12831 0 5.32083 1.12317 5.32083 2.50104C5.32083 3.87891 4.12831 5 2.66042 5Z" fill="#9B9B9B"/>
</svg>
