<svg width="20" height="22" viewBox="0 0 20 22" fill="none" xmlns="http://www.w3.org/2000/svg">
<path d="M14.0256 15.7908C13.817 15.5391 13.7127 15.2534 13.7127 14.9335C13.7127 14.6145 13.817 14.3484 14.0256 14.1355L16.1309 11.9865H7.96586C7.64343 11.9865 7.37335 11.8749 7.15562 11.6519C6.93713 11.4296 6.82788 11.1539 6.82788 10.8248C6.82788 10.4957 6.93713 10.2196 7.15562 9.99657C7.37335 9.77431 7.64343 9.66319 7.96586 9.66319H16.1309L14.0256 7.51416C13.798 7.28184 13.6842 7.00614 13.6842 6.68708C13.6842 6.36724 13.798 6.09116 14.0256 5.85884C14.2342 5.62651 14.4952 5.51035 14.8085 5.51035C15.1211 5.51035 15.3817 5.61683 15.5903 5.82979L19.6871 10.0117C19.8008 10.1278 19.8816 10.2537 19.9294 10.3892C19.9765 10.5247 20 10.6699 20 10.8248C20 10.9797 19.9765 11.1249 19.9294 11.2604C19.8816 11.396 19.8008 11.5218 19.6871 11.638L15.5903 15.8198C15.3438 16.0715 15.0737 16.1827 14.7801 16.1532C14.4857 16.1246 14.2342 16.0038 14.0256 15.7908ZM2.27596 21.2795C1.65007 21.2795 1.11408 21.0522 0.667994 20.5976C0.222665 20.1423 0 19.5952 0 18.9563V2.69338C0 2.05449 0.222665 1.50736 0.667994 1.052C1.11408 0.59741 1.65007 0.370117 2.27596 0.370117H9.10384C9.42627 0.370117 9.69673 0.481247 9.91522 0.703506C10.133 0.92654 10.2418 1.20262 10.2418 1.53175C10.2418 1.86088 10.133 2.13657 9.91522 2.35883C9.69673 2.58187 9.42627 2.69338 9.10384 2.69338H2.27596V18.9563H9.10384C9.42627 18.9563 9.69673 19.0678 9.91522 19.2908C10.133 19.5131 10.2418 19.7888 10.2418 20.1179C10.2418 20.447 10.133 20.7227 9.91522 20.945C9.69673 21.168 9.42627 21.2795 9.10384 21.2795H2.27596Z" fill="#0D2535"/>
</svg>
