<svg width="78" height="79" viewBox="0 0 78 79" fill="none" xmlns="http://www.w3.org/2000/svg">
<path d="M17.3333 61.059H34.6667C35.8944 61.059 36.9243 60.6426 37.7563 59.8099C38.5854 58.98 39 57.9506 39 56.7217C39 55.4928 38.5854 54.4619 37.7563 53.6291C36.9243 52.7993 35.8944 52.3843 34.6667 52.3843H17.3333C16.1056 52.3843 15.0757 52.7993 14.2437 53.6291C13.4146 54.4619 13 55.4928 13 56.7217C13 57.9506 13.4146 58.98 14.2437 59.8099C15.0757 60.6426 16.1056 61.059 17.3333 61.059ZM43.3333 26.3603H60.6667C61.8944 26.3603 62.9229 25.9439 63.752 25.1111C64.584 24.2812 65 23.2518 65 22.0229C65 20.794 64.584 19.7632 63.752 18.9304C62.9229 18.1005 61.8944 17.6856 60.6667 17.6856H43.3333C42.1056 17.6856 41.0771 18.1005 40.248 18.9304C39.416 19.7632 39 20.794 39 22.0229C39 23.2518 39.416 24.2812 40.248 25.1111C41.0771 25.9439 42.1056 26.3603 43.3333 26.3603ZM30.3333 43.7096H47.6667C48.8944 43.7096 49.9243 43.2933 50.7563 42.4605C51.5854 41.6306 52 40.6012 52 39.3723C52 38.1434 51.5854 37.1125 50.7563 36.2798C49.9243 35.4499 48.8944 35.0349 47.6667 35.0349H30.3333C29.1056 35.0349 28.0771 35.4499 27.248 36.2798C26.416 37.1125 26 38.1434 26 39.3723C26 40.6012 26.416 41.6306 27.248 42.4605C28.0771 43.2933 29.1056 43.7096 30.3333 43.7096ZM8.66667 78.4084C6.28333 78.4084 4.24233 77.5597 2.54367 75.8624C0.847888 74.1621 0 72.1193 0 69.7337V9.01087C0 6.62533 0.847888 4.58244 2.54367 2.8822C4.24233 1.18486 6.28333 0.336182 8.66667 0.336182H69.3333C71.7167 0.336182 73.7577 1.18486 75.4563 2.8822C77.1521 4.58244 78 6.62533 78 9.01087V69.7337C78 72.1193 77.1521 74.1621 75.4563 75.8624C73.7577 77.5597 71.7167 78.4084 69.3333 78.4084H8.66667Z" fill="#75F94C"/>
</svg>
