<svg width="22" height="24" viewBox="0 0 22 24" fill="none" xmlns="http://www.w3.org/2000/svg">
<path d="M19.4108 13.1101C19.4579 12.7523 19.4815 12.3826 19.4815 11.989C19.4815 11.6073 19.4579 11.2256 19.399 10.8678L21.7903 8.98323C22.0024 8.81625 22.0613 8.49421 21.9317 8.25566L19.67 4.29573C19.5286 4.03333 19.2341 3.94984 18.9749 4.03333L16.1596 5.17837C15.5706 4.72512 14.9462 4.34344 14.2512 4.05718L13.8272 1.0276C13.78 0.741341 13.5444 0.538574 13.2617 0.538574H8.73827C8.45556 0.538574 8.23174 0.741341 8.18462 1.0276L7.76055 4.05718C7.06554 4.34344 6.42943 4.73705 5.85222 5.17837L3.03684 4.03333C2.77768 3.93791 2.48319 4.03333 2.34183 4.29573L0.091883 8.25566C-0.0494749 8.50613 -0.00235569 8.81625 0.233241 8.98323L2.62455 10.8678C2.56565 11.2256 2.51853 11.6192 2.51853 11.989C2.51853 12.3587 2.54209 12.7523 2.60099 13.1101L0.209681 14.9947C-0.00235567 15.1617 -0.0612547 15.4837 0.0683234 15.7223L2.33005 19.6822C2.47141 19.9446 2.7659 20.0281 3.02506 19.9446L5.84044 18.7996C6.42943 19.2528 7.05376 19.6345 7.74877 19.9207L8.17284 22.9503C8.23174 23.2366 8.45556 23.4394 8.73827 23.4394H13.2617C13.5444 23.4394 13.78 23.2366 13.8154 22.9503L14.2395 19.9207C14.9345 19.6345 15.5706 19.2528 16.1478 18.7996L18.9632 19.9446C19.2223 20.04 19.5168 19.9446 19.6582 19.6822L21.9199 15.7223C22.0613 15.4599 22.0024 15.1617 21.7785 14.9947L19.4108 13.1101ZM11 16.2829C8.66759 16.2829 6.75926 14.3506 6.75926 11.989C6.75926 9.62732 8.66759 7.69507 11 7.69507C13.3324 7.69507 15.2407 9.62732 15.2407 11.989C15.2407 14.3506 13.3324 16.2829 11 16.2829Z" fill="#0D2535"/>
</svg>
