<svg width="67" height="78" viewBox="0 0 67 78" fill="none" xmlns="http://www.w3.org/2000/svg">
<g clip-path="url(#clip0_217_1785)">
<path d="M29.8115 36.0368C29.8882 35.535 29.9649 35.0332 29.9649 34.5C29.9649 33.9668 29.8882 33.465 29.8115 32.9632L33.9514 30.3914C34.3347 30.1718 34.4113 29.7327 34.1813 29.3877L30.2332 23.9618C30.0032 23.6168 29.4665 23.4914 29.0449 23.6168L24.1384 25.185C23.1035 24.5577 21.9919 24.0559 20.8036 23.6482L20.037 19.4768C20.037 19.1005 19.6153 18.8182 19.117 18.8182H11.259C10.7607 18.8182 10.3391 19.1005 10.2624 19.4768L9.49575 23.6168C8.30747 23.9932 7.19586 24.5577 6.1609 25.1536L1.25445 23.5855C0.794467 23.4286 0.296155 23.5855 0.0661654 23.9305L-3.882 29.3564C-4.11198 29.7327 -3.99699 30.1405 -3.61367 30.3914L0.526146 32.9632C0.449482 33.465 0.411151 33.9982 0.411151 34.5C0.411151 35.0332 0.487814 35.535 0.564477 36.0368L-3.61367 38.64C-3.99699 38.8595 -4.07365 39.2986 -3.84366 39.6436L0.104497 45.0695C0.334487 45.4145 0.871131 45.54 1.29278 45.4145L6.19923 43.8464C7.23419 44.4736 8.34581 44.9755 9.53409 45.3832L10.3007 49.5232C10.3391 49.8996 10.7607 50.1818 11.259 50.1818H19.1553C19.6536 50.1818 20.0753 49.8996 20.1136 49.5232L20.8803 45.3832C22.0685 45.0068 23.1802 44.4423 24.2151 43.8464L29.1216 45.4145C29.5815 45.5714 30.0799 45.4145 30.3098 45.0695L34.258 39.6436C34.488 39.2986 34.4113 38.8909 34.028 38.64L29.8115 36.0368ZM15.1688 39.9886C11.374 39.9886 8.26914 37.5423 8.26914 34.5C8.26914 31.4577 11.374 29.0114 15.1688 29.0114C18.9637 29.0114 22.0685 31.4577 22.0685 34.5C22.0685 37.5423 19.002 39.9886 15.1688 39.9886ZM57.3337 0.0313636L19.002 0C14.7855 0 11.3357 2.82273 11.3357 6.27273V15.6818H19.002V12.5455H57.3337V56.4545H19.002V53.3182H11.3357V62.7273C11.3357 66.1773 14.7855 69 19.002 69H57.3337C61.5501 69 65 66.1773 65 62.7273V6.27273C65 2.82273 61.5501 0.0313636 57.3337 0.0313636Z" fill="#75F94C"/>
</g>
<defs>
<clipPath id="clip0_217_1785">
<rect width="67" height="78" fill="white"/>
</clipPath>
</defs>
</svg>
